<?xml version="1.0" encoding="UTF-8"?>
<!DOCTYPE svg PUBLIC "-//W3C//DTD SVG 1.1//EN" "http://www.w3.org/Graphics/SVG/1.1/DTD/svg11.dtd">
<!-- Creator: CorelDRAW 2017 -->
<svg xmlns="http://www.w3.org/2000/svg" xml:space="preserve" width="1027mm" height="313.352mm" version="1.1" style="shape-rendering:geometricPrecision; text-rendering:geometricPrecision; image-rendering:optimizeQuality; fill-rule:evenodd; clip-rule:evenodd"
viewBox="0 0 126967.34 38739.34"
 xmlns:xlink="http://www.w3.org/1999/xlink">
 <defs>
  <style type="text/css">
   <![CDATA[
    .fil4 {fill:none;fill-rule:nonzero}
    .fil2 {fill:#FEFEFE}
    .fil0 {fill:#00A859}
    .fil1 {fill:#DE0076}
    .fil5 {fill:#201E1E;fill-rule:nonzero}
    .fil3 {fill:#DE0076;fill-rule:nonzero}
   ]]>
  </style>
    <clipPath id="id0" style="clip-rule:nonzero">
     <path d="M117374.59 2144.54l4723.53 0 0 16965.38 -4723.53 0 0 -16965.38zm-69427.21 6469.68l4127.76 894.74c-276.61,831.01 -712.78,1526.92 -1312.07,2082.63 -595.77,558.25 -1333.38,978.86 -2219.93,1261.81 -882.98,282.95 -2007.14,425.7 -3372.41,425.7 -1659.61,0 -3010.71,-173.34 -4063.93,-517.47 -1049.67,-346.68 -1953.96,-955.91 -2716.38,-1825.16 -762.43,-869.26 -1145.41,-1985.77 -1145.41,-3341.89 0,-1809.88 670.23,-3201.69 2010.68,-4175.46 1344.01,-971.2 3241.22,-1458.09 5695.18,-1458.09 1918.47,0 3429.15,277.86 4528.48,836.12 1095.76,558.25 1914.94,1414.76 2446.87,2572.05l-4149.04 660.22c-145.4,-331.38 -297.88,-573.54 -457.46,-726.49 -265.96,-257.46 -588.66,-456.29 -968.11,-593.94 -382.98,-140.21 -808.52,-209.03 -1280.15,-209.03 -1070.96,0 -1890.13,308.44 -2457.52,922.78 -429.09,456.29 -645.39,1175.14 -645.39,2151.45 0,1213.38 255.32,2041.84 769.52,2493.03 514.2,448.65 1234.06,672.97 2163.16,672.97 900.75,0 1581.6,-180.99 2042.61,-545.51 461.01,-361.97 794.35,-889.65 1003.57,-1580.45zm6464.71 5472.96l0 -11942.61 8554.45 0c1585.59,0 2799.91,97.31 3635.25,294.68 839.21,194.59 1515.99,558.77 2030.32,1086.95 514.36,530.97 769.6,1178.7 769.6,1940.41 0,661.63 -197.23,1234.29 -591.7,1715.22 -390.59,483.71 -932.01,872.89 -1624.26,1173.13 -437,189.04 -1040.31,347.5 -1802.15,472.6 611.04,147.33 1055.77,291.89 1334.22,439.23 185.62,97.3 460.2,308.57 819.86,628.26 355.8,319.69 595.57,567.11 715.45,742.24l2494.4 3449.9 -5800.94 0 -2741.91 -3641.71c-348.05,-472.6 -657.42,-778.38 -928.14,-920.16 -371.26,-183.48 -792.8,-275.21 -1260.73,-275.21l-452.47 0 0 4837.08 -5151.24 0zm5151.24 -7088.84l2169.54 0c232.05,0 688.38,-55.6 1361.29,-164.02 340.33,-47.25 618.76,-172.35 831.47,-375.29 216.56,-202.94 324.84,-433.67 324.84,-694.98 0,-386.41 -170.14,-683.87 -510.46,-889.58 -340.33,-208.49 -978.42,-311.35 -1918.18,-311.35l-2258.49 0 0 2435.22zm10373.96 1538.03c0,-2073.47 802.4,-3688.46 2411.28,-4842.03 1608.9,-1156.52 3847.36,-1733.32 6719.51,-1733.32 2942.09,0 5209.34,567.91 6801.77,1700.78 1592.44,1135.82 2386.6,2727.16 2386.6,4771.04 0,1484.85 -345.64,2700.53 -1041.04,3650 -695.41,949.48 -1703.53,1688.95 -3016.16,2218.4 -1316.75,529.47 -2954.42,792.71 -4917.2,792.71 -1991.58,0 -3641.6,-227.75 -4950.13,-683.26 -1304.38,-458.48 -2366.02,-1180.19 -3176.65,-2168.12 -810.62,-984.96 -1217.98,-2221.35 -1217.98,-3706.2zm5456.24 8.86c0,1280.76 333.32,2203.61 995.81,2762.65 666.6,559.04 1571.84,840.03 2715.77,840.03 1172.72,0 2086.2,-275.09 2728.12,-822.29 646.04,-550.16 966.98,-1532.17 966.98,-2954.91 0,-1194.97 -337.41,-2067.55 -1008.13,-2617.71 -674.82,-553.12 -1584.19,-828.2 -2736.34,-828.2 -1102.77,0 -1991.58,281 -2658.18,840.03 -670.7,559.04 -1004.02,1487.81 -1004.02,2780.39zm12862.94 -6400.68l13752.51 0 566.97 0 13752.51 0 0 4193.95 -4808.62 0 0 12771.43 -4702.24 0 0 -12771.43 -4241.65 0 -566.97 0 -4241.65 0 0 12771.43 -4702.24 0 0 -12771.43 -4808.62 0 0 -4193.95z"/>
    </clipPath>
 </defs>
 <g id="Camada_x0020_1">
  <metadata id="CorelCorpID_0Corel-Layer"/>
  <rect class="fil0" x="0.01" y="-0" width="126967.34" height="38739.35" rx="2105.4" ry="2472.58"/>
  <g id="_2918887076976">
   <path class="fil1" d="M9558.52 11487.17l-4689 8933.38 75429.71 0c0,0 -43.6,-1809.47 -4993.76,-3314.38 -4950.15,-1504.91 -40778.8,-4099.62 -40778.8,-4099.62l-109.04 -9551.38 -14414.3 0 -3532.7 8242.82 -6912.11 -210.81z"/>
   <polygon class="fil2" points="18803.82,11196.65 19196.36,11196.65 32803.79,11196.65 32803.79,7271.42 20286.69,7271.42 "/>
   <polygon class="fil2" points="17146.5,15492.58 17585.51,15492.58 32803.79,15492.58 32803.79,11937.86 18804.91,11937.86 "/>
   <circle class="fil2" cx="34537.21" cy="20257.21" r="5646.67"/>
   <circle class="fil1" cx="34537.21" cy="20257.21" r="4983.06"/>
   <path class="fil3" d="M117374.59 2144.54l4723.53 0 0 16965.38 -4723.53 0 0 -16965.38zm-69427.21 6469.68l4127.76 894.74c-276.61,831.01 -712.78,1526.92 -1312.07,2082.63 -595.77,558.25 -1333.38,978.86 -2219.93,1261.81 -882.98,282.95 -2007.14,425.7 -3372.41,425.7 -1659.61,0 -3010.71,-173.34 -4063.93,-517.47 -1049.67,-346.68 -1953.96,-955.91 -2716.38,-1825.16 -762.43,-869.26 -1145.41,-1985.77 -1145.41,-3341.89 0,-1809.88 670.23,-3201.69 2010.68,-4175.46 1344.01,-971.2 3241.22,-1458.09 5695.18,-1458.09 1918.47,0 3429.15,277.86 4528.48,836.12 1095.76,558.25 1914.94,1414.76 2446.87,2572.05l-4149.04 660.22c-145.4,-331.38 -297.88,-573.54 -457.46,-726.49 -265.96,-257.46 -588.66,-456.29 -968.11,-593.94 -382.98,-140.21 -808.52,-209.03 -1280.15,-209.03 -1070.96,0 -1890.13,308.44 -2457.52,922.78 -429.09,456.29 -645.39,1175.14 -645.39,2151.45 0,1213.38 255.32,2041.84 769.52,2493.03 514.2,448.65 1234.06,672.97 2163.16,672.97 900.75,0 1581.6,-180.99 2042.61,-545.51 461.01,-361.97 794.35,-889.65 1003.57,-1580.45zm6464.71 5472.96l0 -11942.61 8554.45 0c1585.59,0 2799.91,97.31 3635.25,294.68 839.21,194.59 1515.99,558.77 2030.32,1086.95 514.36,530.97 769.6,1178.7 769.6,1940.41 0,661.63 -197.23,1234.29 -591.7,1715.22 -390.59,483.71 -932.01,872.89 -1624.26,1173.13 -437,189.04 -1040.31,347.5 -1802.15,472.6 611.04,147.33 1055.77,291.89 1334.22,439.23 185.62,97.3 460.2,308.57 819.86,628.26 355.8,319.69 595.57,567.11 715.45,742.24l2494.4 3449.9 -5800.94 0 -2741.91 -3641.71c-348.05,-472.6 -657.42,-778.38 -928.14,-920.16 -371.26,-183.48 -792.8,-275.21 -1260.73,-275.21l-452.47 0 0 4837.08 -5151.24 0zm5151.24 -7088.84l2169.54 0c232.05,0 688.38,-55.6 1361.29,-164.02 340.33,-47.25 618.76,-172.35 831.47,-375.29 216.56,-202.94 324.84,-433.67 324.84,-694.98 0,-386.41 -170.14,-683.87 -510.46,-889.58 -340.33,-208.49 -978.42,-311.35 -1918.18,-311.35l-2258.49 0 0 2435.22zm10373.96 1538.03c0,-2073.47 802.4,-3688.46 2411.28,-4842.03 1608.9,-1156.52 3847.36,-1733.32 6719.51,-1733.32 2942.09,0 5209.34,567.91 6801.77,1700.78 1592.44,1135.82 2386.6,2727.16 2386.6,4771.04 0,1484.85 -345.64,2700.53 -1041.04,3650 -695.41,949.48 -1703.53,1688.95 -3016.16,2218.4 -1316.75,529.47 -2954.42,792.71 -4917.2,792.71 -1991.58,0 -3641.6,-227.75 -4950.13,-683.26 -1304.38,-458.48 -2366.02,-1180.19 -3176.65,-2168.12 -810.62,-984.96 -1217.98,-2221.35 -1217.98,-3706.2zm5456.24 8.86c0,1280.76 333.32,2203.61 995.81,2762.65 666.6,559.04 1571.84,840.03 2715.77,840.03 1172.72,0 2086.2,-275.09 2728.12,-822.29 646.04,-550.16 966.98,-1532.17 966.98,-2954.91 0,-1194.97 -337.41,-2067.55 -1008.13,-2617.71 -674.82,-553.12 -1584.19,-828.2 -2736.34,-828.2 -1102.77,0 -1991.58,281 -2658.18,840.03 -670.7,559.04 -1004.02,1487.81 -1004.02,2780.39zm12862.94 -6400.68l13752.51 0 566.97 0 13752.51 0 0 4193.95 -4808.62 0 0 12771.43 -4702.24 0 0 -12771.43 -4241.65 0 -566.97 0 -4241.65 0 0 12771.43 -4702.24 0 0 -12771.43 -4808.62 0 0 -4193.95z"/>
   <g style="clip-path:url(#id0)">
    <g>
     <g>
      <rect class="fil2" x="34989.42" y="7140.69" width="89364.28" height="785.06"/>
      <rect class="fil2" x="34989.42" y="8492.71" width="89364.28" height="785.06"/>
      <rect class="fil2" x="34989.42" y="9844.73" width="89364.28" height="785.06"/>
      <rect class="fil2" x="34989.42" y="11196.75" width="89364.28" height="785.06"/>
      <rect class="fil2" x="34989.42" y="12548.77" width="89364.28" height="785.06"/>
      <rect class="fil2" x="34989.42" y="13900.79" width="89364.28" height="785.06"/>
      <rect class="fil2" x="34989.42" y="15252.81" width="89364.28" height="785.06"/>
      <rect class="fil2" x="34989.42" y="16604.83" width="89364.28" height="785.06"/>
      <rect class="fil2" x="34989.42" y="17956.85" width="89364.28" height="785.06"/>
      <rect class="fil2" x="34989.42" y="19308.87" width="89364.28" height="785.06"/>
     </g>
    </g>
   </g>
   <path class="fil4" d="M117374.59 2144.54l4723.53 0 0 16965.38 -4723.53 0 0 -16965.38zm-69427.21 6469.68l4127.76 894.74c-276.61,831.01 -712.78,1526.92 -1312.07,2082.63 -595.77,558.25 -1333.38,978.86 -2219.93,1261.81 -882.98,282.95 -2007.14,425.7 -3372.41,425.7 -1659.61,0 -3010.71,-173.34 -4063.93,-517.47 -1049.67,-346.68 -1953.96,-955.91 -2716.38,-1825.16 -762.43,-869.26 -1145.41,-1985.77 -1145.41,-3341.89 0,-1809.88 670.23,-3201.69 2010.68,-4175.46 1344.01,-971.2 3241.22,-1458.09 5695.18,-1458.09 1918.47,0 3429.15,277.86 4528.48,836.12 1095.76,558.25 1914.94,1414.76 2446.87,2572.05l-4149.04 660.22c-145.4,-331.38 -297.88,-573.54 -457.46,-726.49 -265.96,-257.46 -588.66,-456.29 -968.11,-593.94 -382.98,-140.21 -808.52,-209.03 -1280.15,-209.03 -1070.96,0 -1890.13,308.44 -2457.52,922.78 -429.09,456.29 -645.39,1175.14 -645.39,2151.45 0,1213.38 255.32,2041.84 769.52,2493.03 514.2,448.65 1234.06,672.97 2163.16,672.97 900.75,0 1581.6,-180.99 2042.61,-545.51 461.01,-361.97 794.35,-889.65 1003.57,-1580.45zm6464.71 5472.96l0 -11942.61 8554.45 0c1585.59,0 2799.91,97.31 3635.25,294.68 839.21,194.59 1515.99,558.77 2030.32,1086.95 514.36,530.97 769.6,1178.7 769.6,1940.41 0,661.63 -197.23,1234.29 -591.7,1715.22 -390.59,483.71 -932.01,872.89 -1624.26,1173.13 -437,189.04 -1040.31,347.5 -1802.15,472.6 611.04,147.33 1055.77,291.89 1334.22,439.23 185.62,97.3 460.2,308.57 819.86,628.26 355.8,319.69 595.57,567.11 715.45,742.24l2494.4 3449.9 -5800.94 0 -2741.91 -3641.71c-348.05,-472.6 -657.42,-778.38 -928.14,-920.16 -371.26,-183.48 -792.8,-275.21 -1260.73,-275.21l-452.47 0 0 4837.08 -5151.24 0zm5151.24 -7088.84l2169.54 0c232.05,0 688.38,-55.6 1361.29,-164.02 340.33,-47.25 618.76,-172.35 831.47,-375.29 216.56,-202.94 324.84,-433.67 324.84,-694.98 0,-386.41 -170.14,-683.87 -510.46,-889.58 -340.33,-208.49 -978.42,-311.35 -1918.18,-311.35l-2258.49 0 0 2435.22zm10373.96 1538.03c0,-2073.47 802.4,-3688.46 2411.28,-4842.03 1608.9,-1156.52 3847.36,-1733.32 6719.51,-1733.32 2942.09,0 5209.34,567.91 6801.77,1700.78 1592.44,1135.82 2386.6,2727.16 2386.6,4771.04 0,1484.85 -345.64,2700.53 -1041.04,3650 -695.41,949.48 -1703.53,1688.95 -3016.16,2218.4 -1316.75,529.47 -2954.42,792.71 -4917.2,792.71 -1991.58,0 -3641.6,-227.75 -4950.13,-683.26 -1304.38,-458.48 -2366.02,-1180.19 -3176.65,-2168.12 -810.62,-984.96 -1217.98,-2221.35 -1217.98,-3706.2zm5456.24 8.86c0,1280.76 333.32,2203.61 995.81,2762.65 666.6,559.04 1571.84,840.03 2715.77,840.03 1172.72,0 2086.2,-275.09 2728.12,-822.29 646.04,-550.16 966.98,-1532.17 966.98,-2954.91 0,-1194.97 -337.41,-2067.55 -1008.13,-2617.71 -674.82,-553.12 -1584.19,-828.2 -2736.34,-828.2 -1102.77,0 -1991.58,281 -2658.18,840.03 -670.7,559.04 -1004.02,1487.81 -1004.02,2780.39zm12862.94 -6400.68l13752.51 0 566.97 0 13752.51 0 0 4193.95 -4808.62 0 0 12771.43 -4702.24 0 0 -12771.43 -4241.65 0 -566.97 0 -4241.65 0 0 12771.43 -4702.24 0 0 -12771.43 -4808.62 0 0 -4193.95z"/>
   <circle class="fil2" cx="87694.58" cy="20420.55" r="5646.67"/>
   <circle class="fil1" cx="87694.58" cy="20420.55" r="4983.06"/>
   <circle class="fil2" cx="102008.99" cy="20420.55" r="5646.67"/>
   <circle class="fil1" cx="102008.99" cy="20420.55" r="4983.06"/>
   <polygon class="fil5" points="2690.35,29735.64 4907.49,29735.64 5752.05,33045.51 6599.14,29735.64 8806.14,29735.64 8806.14,35175.28 7431.04,35175.28 7431.04,31028.44 6369.96,35175.28 5124.01,35175.28 4065.45,31028.44 4065.45,35175.28 2690.35,35175.28 "/>
   <path id="1" class="fil5" d="M13416.42 29735.64l1678.99 0 0 3240.23c0,320.35 -50.65,624.24 -150.68,909.14 -100.03,286.16 -257.04,535.61 -471.03,749.6 -213.99,213.99 -438.12,363.4 -672.36,450.76 -326.69,120.29 -719.21,181.07 -1176.32,181.07 -264.64,0 -553.33,-18.99 -866.08,-55.71 -312.76,-36.72 -574.86,-110.17 -785.06,-220.32 -210.18,-110.17 -402.65,-265.91 -576.12,-468.5 -174.74,-202.59 -293.75,-411.51 -358.34,-626.77 -103.82,-345.67 -155.74,-652.09 -155.74,-919.27l0 -3240.23 1678.99 0 0 3317.47c0,296.29 82.3,528.01 245.64,693.88 164.61,167.15 392.52,250.71 683.75,250.71 287.43,0 514.09,-82.3 678.69,-246.91 163.35,-163.34 245.65,-396.32 245.65,-697.68l0 -3317.47z"/>
   <path id="2" class="fil5" d="M16227.41 29735.64l2498.23 0c491.29,0 890.14,67.11 1192.76,200.06 302.63,134.22 553.34,325.42 752.13,574.86 197.53,250.71 340.61,540.68 429.24,872.43 89.9,331.75 134.22,682.48 134.22,1053.48 0,581.19 -65.84,1031.97 -198.8,1352.32 -131.69,320.35 -315.29,588.78 -550.8,805.31 -235.51,216.52 -487.49,360.87 -757.19,433.05 -368.46,98.77 -702.74,148.14 -1001.57,148.14l-2498.23 0 0 -5439.64zm1678.99 1230.75l0 2970.53 412.78 0c352.01,0 602.72,-39.25 752.12,-116.5 148.14,-78.5 264.64,-213.99 349.47,-407.72 84.83,-195 126.62,-509.02 126.62,-944.59 0,-576.14 -93.7,-969.92 -282.36,-1182.65 -188.67,-212.72 -501.43,-319.09 -938.27,-319.09l-420.38 0z"/>
   <path id="3" class="fil5" d="M25133.94 34278.81l-1904.38 0 -273.5 896.47 -1715.71 0 2047.46 -5439.64 1839.8 0 2038.61 5439.64 -1760.03 0 -272.23 -896.47zm-355.82 -1177.58l-593.85 -1955.03 -596.37 1955.03 1190.23 0z"/>
   <polygon id="4" class="fil5" points="27711.93,29735.64 29280.77,29735.64 31320.64,32739.1 31320.64,29735.64 32908.46,29735.64 32908.46,35175.28 31320.64,35175.28 29292.16,32188.29 29292.16,35175.28 27711.93,35175.28 "/>
   <path id="5" class="fil5" d="M37649.16 32949.28l1473.87 444.45c-98.77,412.78 -254.52,758.46 -468.5,1034.49 -212.72,277.3 -476.1,486.22 -792.65,626.77 -315.28,140.55 -716.68,211.46 -1204.16,211.46 -592.59,0 -1075.02,-86.1 -1451.08,-257.04 -374.79,-172.2 -697.68,-474.83 -969.92,-906.61 -272.23,-431.77 -408.99,-986.37 -408.99,-1660 0,-899.01 239.32,-1590.35 717.95,-2074.05 479.89,-482.43 1157.32,-724.27 2033.54,-724.27 685.02,0 1224.42,138.01 1616.94,415.32 391.26,277.3 683.75,702.74 873.69,1277.59l-1481.47 327.95c-51.91,-164.6 -106.36,-284.89 -163.34,-360.86 -94.96,-127.89 -210.19,-226.66 -345.68,-295.03 -136.75,-69.64 -288.69,-103.84 -457.09,-103.84 -382.4,0 -674.89,153.21 -877.48,458.37 -153.21,226.65 -230.46,583.73 -230.46,1068.69 0,602.72 91.16,1014.23 274.77,1238.35 183.6,222.85 440.65,334.28 772.4,334.28 321.61,0 564.72,-89.9 729.34,-270.97 164.6,-179.81 283.63,-441.91 358.34,-785.06zm-2066.46 2843.91l111.43 -440.64c232.98,-56.98 450.76,-86.11 654.63,-86.11 422.91,0 715.4,72.17 876.22,215.26 160.8,144.35 241.84,314.02 241.84,509.02 0,119.02 -36.72,241.84 -110.15,367.19 -72.17,126.62 -203.86,227.92 -391.26,305.17 -188.67,77.23 -439.38,115.22 -750.86,115.22 -282.37,0 -615.39,-31.66 -996.51,-96.23l0 -455.83c258.31,49.38 531.8,73.44 821.77,73.44 212.72,0 357.07,-27.85 431.77,-84.83 75.97,-56.98 113.96,-130.42 113.96,-222.85 0,-70.91 -30.39,-132.95 -92.44,-184.86 -62.05,-51.92 -158.28,-77.24 -289.96,-77.24 -176.01,0 -382.4,21.52 -620.44,63.31z"/>
   <path id="6" class="fil5" d="M43281.26 34278.81l-1904.38 0 -273.5 896.47 -1715.71 0 2047.46 -5439.64 1839.8 0 2038.61 5439.64 -1760.03 0 -272.23 -896.47zm-355.82 -1177.58l-593.85 -1955.03 -596.37 1955.03 1190.23 0z"/>
   <path id="7" class="fil5" d="M45555.37 33376l1595.43 -100.03c34.18,258.3 105.1,455.83 211.46,590.06 173.46,219.05 420.38,329.21 742,329.21 239.31,0 424.18,-55.72 553.34,-168.41 130.42,-112.69 194.99,-243.12 194.99,-391.26 0,-140.55 -60.78,-267.17 -183.6,-378.6 -122.81,-111.43 -408.98,-215.25 -858.48,-315.28 -736.94,-164.61 -1261.15,-384.93 -1575.17,-659.7 -316.55,-273.5 -474.83,-622.98 -474.83,-1048.42 0,-278.56 81.04,-541.94 243.12,-790.11 162.08,-249.45 405.18,-444.45 730.6,-586.26 325.42,-141.81 771.12,-212.72 1337.12,-212.72 695.15,0 1224.42,129.16 1589.09,388.73 364.67,258.3 581.19,669.82 650.83,1234.55l-1580.23 93.7c-41.79,-246.9 -130.42,-426.71 -264.64,-538.13 -135.49,-112.7 -321.62,-168.41 -558.4,-168.41 -195,0 -343.14,41.79 -441.91,124.09 -98.77,82.3 -148.14,183.6 -148.14,302.63 0,86.1 40.53,163.34 120.29,232.98 77.24,72.17 264.64,138.02 560.93,200.06 734.41,158.28 1259.88,319.09 1576.43,481.16 317.83,162.08 549.54,362.13 693.89,602.72 144.34,239.31 216.51,507.74 216.51,805.31 0,348.21 -96.23,669.82 -288.69,964.85 -193.74,293.77 -462.17,517.88 -809.11,669.83 -345.68,151.94 -781.25,227.91 -1307.99,227.91 -924.34,0 -1565.03,-178.53 -1920.84,-534.34 -355.8,-355.8 -557.13,-807.84 -603.99,-1356.11z"/>
   <polygon id="8" class="fil5" points="53864.25,29735.64 58361.83,29735.64 58361.83,30898.03 55550.85,30898.03 55550.85,31764.11 58156.7,31764.11 58156.7,32873.31 55550.85,32873.31 55550.85,33944.53 58445.4,33944.53 58445.4,35175.28 53864.25,35175.28 "/>
   <polygon id="9" class="fil5" points="61504.57,29735.64 66617.54,29735.64 66617.54,31080.35 64900.55,31080.35 64900.55,35175.28 63221.56,35175.28 63221.56,31080.35 61504.57,31080.35 "/>
   <path id="10" class="fil5" d="M67393.73 35175.28l0 -5439.64 2800.85 0c519.14,0 916.73,44.32 1190.24,134.21 274.77,88.64 496.36,254.52 664.77,495.1 168.4,241.84 251.97,536.87 251.97,883.81 0,301.36 -64.57,562.2 -193.73,781.25 -127.89,220.32 -305.15,397.59 -531.81,534.35 -143.08,86.1 -340.61,158.27 -590.04,215.25 200.06,67.11 345.67,132.95 436.84,200.06 60.78,44.32 150.68,140.55 268.44,286.16 116.48,145.62 194.99,258.31 234.24,338.09l816.71 1571.36 -1899.31 0 -897.74 -1658.73c-113.96,-215.26 -215.25,-354.54 -303.89,-419.11 -121.55,-83.57 -259.57,-125.36 -412.78,-125.36l-148.14 0 0 2203.2 -1686.58 0zm1686.58 -3228.83l710.35 0c75.97,0 225.39,-25.33 445.71,-74.71 111.43,-21.52 202.59,-78.5 272.23,-170.94 70.91,-92.44 106.37,-197.52 106.37,-316.55 0,-176 -55.72,-311.48 -167.15,-405.18 -111.43,-94.97 -320.35,-141.83 -628.04,-141.83l-739.47 0 0 1109.21z"/>
   <path id="11" class="fil5" d="M76626.93 34278.81l-1904.38 0 -273.5 896.47 -1715.71 0 2047.46 -5439.64 1839.8 0 2038.61 5439.64 -1760.03 0 -272.23 -896.47zm-355.82 -1177.58l-593.85 -1955.03 -596.37 1955.03 1190.23 0z"/>
   <polygon id="12" class="fil5" points="79204.93,29735.64 80773.77,29735.64 82813.64,32739.1 82813.64,29735.64 84401.46,29735.64 84401.46,35175.28 82813.64,35175.28 80785.16,32188.29 80785.16,35175.28 79204.93,35175.28 "/>
   <path id="13" class="fil5" d="M85229.56 33376l1595.43 -100.03c34.18,258.3 105.1,455.83 211.46,590.06 173.46,219.05 420.38,329.21 742,329.21 239.31,0 424.18,-55.72 553.34,-168.41 130.42,-112.69 194.99,-243.12 194.99,-391.26 0,-140.55 -60.78,-267.17 -183.6,-378.6 -122.81,-111.43 -408.98,-215.25 -858.48,-315.28 -736.94,-164.61 -1261.15,-384.93 -1575.17,-659.7 -316.55,-273.5 -474.83,-622.98 -474.83,-1048.42 0,-278.56 81.04,-541.94 243.12,-790.11 162.08,-249.45 405.18,-444.45 730.6,-586.26 325.42,-141.81 771.12,-212.72 1337.12,-212.72 695.15,0 1224.42,129.16 1589.09,388.73 364.67,258.3 581.19,669.82 650.83,1234.55l-1580.23 93.7c-41.79,-246.9 -130.42,-426.71 -264.64,-538.13 -135.49,-112.7 -321.62,-168.41 -558.4,-168.41 -195,0 -343.14,41.79 -441.91,124.09 -98.77,82.3 -148.14,183.6 -148.14,302.63 0,86.1 40.53,163.34 120.29,232.98 77.24,72.17 264.64,138.02 560.93,200.06 734.41,158.28 1259.88,319.09 1576.43,481.16 317.83,162.08 549.54,362.13 693.89,602.72 144.34,239.31 216.51,507.74 216.51,805.31 0,348.21 -96.23,669.82 -288.69,964.85 -193.74,293.77 -462.17,517.88 -809.11,669.83 -345.68,151.94 -781.25,227.91 -1307.99,227.91 -924.34,0 -1565.03,-178.53 -1920.84,-534.34 -355.8,-355.8 -557.13,-807.84 -603.99,-1356.11z"/>
   <path id="14" class="fil5" d="M90997.16 29735.64l2795.78 0c609.05,0 1064.89,144.35 1368.77,434.31 302.63,289.96 454.57,702.74 454.57,1238.35 0,549.53 -165.87,980.04 -496.35,1289.01 -330.49,310.22 -835.71,464.7 -1514.39,464.7l-921.8 0 0 2013.27 -1686.58 0 0 -5439.64zm1686.58 2324.76l414.06 0c326.68,0 555.86,-56.98 687.55,-169.67 131.68,-112.69 197.52,-257.04 197.52,-433.05 0,-170.93 -56.98,-315.28 -172.2,-434.31 -113.96,-119.02 -329.21,-178.53 -645.76,-178.53l-481.16 0 0 1215.56z"/>
   <path id="15" class="fil5" d="M96278.52 32459.26c0,-887.62 246.91,-1578.96 742.01,-2072.79 495.08,-495.08 1183.91,-742 2067.72,-742 905.34,0 1603.02,243.1 2093.04,728.06 490.03,486.23 734.41,1167.45 734.41,2042.4 0,635.64 -106.36,1156.05 -320.35,1562.51 -213.99,406.44 -524.21,722.99 -928.13,949.66 -405.19,226.65 -909.14,339.34 -1513.12,339.34 -612.85,0 -1120.6,-97.49 -1523.26,-292.49 -401.39,-196.26 -728.06,-505.21 -977.51,-928.13 -249.45,-421.65 -374.81,-950.92 -374.81,-1586.56zm1679.01 3.8c0,548.27 102.56,943.33 306.41,1182.63 205.13,239.32 483.7,359.61 835.71,359.61 360.86,0 641.97,-117.76 839.49,-352.01 198.8,-235.51 297.56,-655.9 297.56,-1264.95 0,-511.55 -103.84,-885.07 -310.22,-1120.6 -207.66,-236.77 -487.49,-354.53 -842.02,-354.53 -339.35,0 -612.85,120.29 -817.98,359.6 -206.39,239.31 -308.95,636.9 -308.95,1190.24z"/>
   <path id="16" class="fil5" d="M102842.56 35175.28l0 -5439.64 2800.85 0c519.14,0 916.73,44.32 1190.24,134.21 274.77,88.64 496.36,254.52 664.77,495.1 168.4,241.84 251.97,536.87 251.97,883.81 0,301.36 -64.57,562.2 -193.73,781.25 -127.89,220.32 -305.15,397.59 -531.81,534.35 -143.08,86.1 -340.61,158.27 -590.04,215.25 200.06,67.11 345.67,132.95 436.84,200.06 60.78,44.32 150.68,140.55 268.44,286.16 116.48,145.62 194.99,258.31 234.24,338.09l816.71 1571.36 -1899.31 0 -897.74 -1658.73c-113.96,-215.26 -215.25,-354.54 -303.89,-419.11 -121.55,-83.57 -259.57,-125.36 -412.78,-125.36l-148.14 0 0 2203.2 -1686.58 0zm1686.58 -3228.83l710.35 0c75.97,0 225.39,-25.33 445.71,-74.71 111.43,-21.52 202.59,-78.5 272.23,-170.94 70.91,-92.44 106.37,-197.52 106.37,-316.55 0,-176 -55.72,-311.48 -167.15,-405.18 -111.43,-94.97 -320.35,-141.83 -628.04,-141.83l-739.47 0 0 1109.21z"/>
   <polygon id="17" class="fil5" points="108282.2,29735.64 113395.16,29735.64 113395.16,31080.35 111678.18,31080.35 111678.18,35175.28 109999.19,35175.28 109999.19,31080.35 108282.2,31080.35 "/>
   <polygon id="18" class="fil5" points="114148.56,29735.64 118646.13,29735.64 118646.13,30898.03 115835.15,30898.03 115835.15,31764.11 118441.01,31764.11 118441.01,32873.31 115835.15,32873.31 115835.15,33944.53 118729.7,33944.53 118729.7,35175.28 114148.56,35175.28 "/>
   <path id="19" class="fil5" d="M119346.35 33376l1595.43 -100.03c34.18,258.3 105.1,455.83 211.46,590.06 173.46,219.05 420.38,329.21 742,329.21 239.31,0 424.18,-55.72 553.34,-168.41 130.42,-112.69 194.99,-243.12 194.99,-391.26 0,-140.55 -60.78,-267.17 -183.6,-378.6 -122.81,-111.43 -408.98,-215.25 -858.48,-315.28 -736.94,-164.61 -1261.15,-384.93 -1575.17,-659.7 -316.55,-273.5 -474.83,-622.98 -474.83,-1048.42 0,-278.56 81.04,-541.94 243.12,-790.11 162.08,-249.45 405.18,-444.45 730.6,-586.26 325.42,-141.81 771.12,-212.72 1337.12,-212.72 695.15,0 1224.42,129.16 1589.09,388.73 364.67,258.3 581.19,669.82 650.83,1234.55l-1580.23 93.7c-41.79,-246.9 -130.42,-426.71 -264.64,-538.13 -135.49,-112.7 -321.62,-168.41 -558.4,-168.41 -195,0 -343.14,41.79 -441.91,124.09 -98.77,82.3 -148.14,183.6 -148.14,302.63 0,86.1 40.53,163.34 120.29,232.98 77.24,72.17 264.64,138.02 560.93,200.06 734.41,158.28 1259.88,319.09 1576.43,481.16 317.83,162.08 549.54,362.13 693.89,602.72 144.34,239.31 216.51,507.74 216.51,805.31 0,348.21 -96.23,669.82 -288.69,964.85 -193.74,293.77 -462.17,517.88 -809.11,669.83 -345.68,151.94 -781.25,227.91 -1307.99,227.91 -924.34,0 -1565.03,-178.53 -1920.84,-534.34 -355.8,-355.8 -557.13,-807.84 -603.99,-1356.11z"/>
  </g>
 </g>
</svg>
